<svg xmlns="http://www.w3.org/2000/svg" xmlns:xlink="http://www.w3.org/1999/xlink" width="1640" zoomAndPan="magnify" viewBox="0 0 1230 693.000001" height="924" preserveAspectRatio="xMidYMid meet" version="1.0"><defs><g/><clipPath id="80fa0c857b"><path d="M 886 277 L 1206 277 L 1206 452.460938 L 886 452.460938 Z M 886 277 " clip-rule="nonzero"/></clipPath><clipPath id="34772434cd"><path d="M 7 290.945312 L 179.878906 290.945312 L 179.878906 452.710938 L 7 452.710938 Z M 7 290.945312 " clip-rule="nonzero"/></clipPath></defs><g fill="#d64482" fill-opacity="1"><g transform="translate(135.268355, 307.112636)"><g><path d="M 170.082031 -3.503906 C 173.023438 -4.765625 176.109375 -74.59375 176.109375 -74.59375 L 173.867188 -76.976562 L 55.246094 -83.289062 L 57.207031 -102.917969 C 57.207031 -102.917969 152.414062 -102.214844 155.636719 -102.917969 C 158.722656 -103.476562 155.078125 -209.058594 152.414062 -209.621094 C 145.261719 -211.023438 29.445312 -203.453125 26.921875 -201.488281 C 26.640625 -201.347656 22.996094 -196.300781 22.996094 -196.300781 C 16.40625 -187.605469 14.582031 -70.808594 16.125 -70.808594 C 16.125 -70.808594 36.734375 -64.640625 90.4375 -61.976562 C 89.316406 -53.28125 87.355469 -41.363281 87.355469 -41.363281 C 84.128906 -41.363281 25.097656 -49.496094 25.097656 -49.496094 C 24.679688 -49.214844 21.875 -44.308594 21.875 -44.308594 C 21.875 -44.308594 22.015625 -10.65625 24.257812 -6.308594 Z M 170.082031 -3.503906 "/></g></g></g><g fill="#d64482" fill-opacity="1"><g transform="translate(320.480382, 307.112636)"><g><path d="M 106.421875 -112.171875 C 105.300781 -101.09375 104.460938 -62.675781 98.289062 -62.253906 C 98.289062 -62.253906 92.542969 -60.011719 92.542969 -60.292969 C 92.542969 -60.710938 63.097656 -58.1875 60.152344 -60.710938 L 56.367188 -65.761719 L 53.84375 -80.203125 C 53.84375 -80.203125 50.898438 -113.996094 53.5625 -118.0625 C 53.5625 -118.0625 59.3125 -123.667969 89.035156 -123.667969 C 101.515625 -123.667969 107.40625 -123.25 106.421875 -112.171875 Z M 157.460938 -204.433594 C 80.203125 -220.835938 28.183594 -204.433594 28.183594 -204.433594 L 18.789062 -194.898438 C 6.308594 -113.011719 29.304688 -19.628906 29.304688 -19.628906 L 31.96875 -9.957031 C 63.796875 21.453125 131.382812 1.683594 131.382812 2.101562 C 131.382812 2.523438 143.441406 -9.535156 143.441406 -9.535156 C 176.390625 -83.289062 162.929688 -197.421875 162.929688 -197.421875 Z M 157.460938 -204.433594 "/></g></g></g><g fill="#d64482" fill-opacity="1"><g transform="translate(499.663554, 307.112636)"><g/></g></g><g fill="#d64482" fill-opacity="1"><g transform="translate(586.030402, 307.112636)"><g><path d="M 126.472656 -89.316406 C 126.472656 -89.316406 112.734375 -123.109375 111.46875 -125.914062 C 110.207031 -128.71875 81.886719 -185.925781 81.886719 -185.925781 L 81.746094 -186.066406 C 59.3125 -191.253906 30.847656 -189.992188 30.847656 -189.992188 L 23.835938 -187.886719 C 23.835938 -187.886719 20.191406 -65.339844 24.816406 -5.046875 L 29.585938 1.402344 L 65.058594 2.945312 L 69.546875 1.542969 C 69.546875 1.542969 70.386719 -27.0625 70.246094 -30.007812 C 70.246094 -32.949219 68.707031 -74.453125 68.707031 -74.453125 C 68.707031 -74.453125 92.820312 -31.546875 94.363281 -29.023438 C 95.90625 -26.5 113.714844 2.804688 113.714844 2.804688 L 167.695312 4.347656 C 167.695312 4.347656 173.304688 -208.078125 171.480469 -208.5 C 149.046875 -213.6875 134.605469 -212.425781 134.605469 -212.425781 C 134.605469 -212.425781 128.296875 -212.144531 127.59375 -210.320312 Z M 126.472656 -89.316406 "/></g></g></g><g fill="#d64482" fill-opacity="1"><g transform="translate(769.700165, 307.112636)"><g><path d="M 106.421875 -112.171875 C 105.300781 -101.09375 104.460938 -62.675781 98.289062 -62.253906 C 98.289062 -62.253906 92.542969 -60.011719 92.542969 -60.292969 C 92.542969 -60.710938 63.097656 -58.1875 60.152344 -60.710938 L 56.367188 -65.761719 L 53.84375 -80.203125 C 53.84375 -80.203125 50.898438 -113.996094 53.5625 -118.0625 C 53.5625 -118.0625 59.3125 -123.667969 89.035156 -123.667969 C 101.515625 -123.667969 107.40625 -123.25 106.421875 -112.171875 Z M 157.460938 -204.433594 C 80.203125 -220.835938 28.183594 -204.433594 28.183594 -204.433594 L 18.789062 -194.898438 C 6.308594 -113.011719 29.304688 -19.628906 29.304688 -19.628906 L 31.96875 -9.957031 C 63.796875 21.453125 131.382812 1.683594 131.382812 2.101562 C 131.382812 2.523438 143.441406 -9.535156 143.441406 -9.535156 C 176.390625 -83.289062 162.929688 -197.421875 162.929688 -197.421875 Z M 157.460938 -204.433594 "/></g></g></g><g fill="#d64482" fill-opacity="1"><g transform="translate(948.883294, 307.112636)"><g><path d="M 12.058594 -88.335938 C 15.421875 -88.617188 42.90625 -89.316406 58.890625 -90.019531 C 59.03125 -57.910156 59.589844 -31.828125 61.273438 -10.65625 L 66.042969 -4.207031 L 100.394531 -1.261719 C 100.394531 -1.261719 101.65625 -43.746094 102.777344 -92.261719 C 130.398438 -93.664062 142.738281 -95.066406 156.621094 -95.90625 C 159.425781 -113.714844 155.21875 -194.195312 154.234375 -207.238281 C 129.839844 -210.042969 35.195312 -217.472656 10.796875 -214.386719 C 10.796875 -214.386719 1.683594 -135.867188 12.058594 -88.335938 Z M 12.058594 -88.335938 "/></g></g></g><path stroke-linecap="butt" transform="matrix(2.819434, 0, 0, 2.819434, 0.886166, 61.237896)" fill="none" stroke-linejoin="miter" d="M 104.714253 83.756142 C 105.7589 83.308634 106.853423 58.543303 106.853423 58.543303 L 106.058162 57.696778 L 63.9855 55.459239 L 64.681008 48.497237 C 64.681008 48.497237 98.449144 48.745237 99.592159 48.497237 C 100.686683 48.297729 99.394036 10.849777 98.449144 10.651654 C 95.912342 10.154269 54.83445 12.839316 53.939435 13.536209 C 53.839681 13.586086 52.547034 15.376117 52.547034 15.376117 C 50.209741 18.458795 49.562725 59.885826 50.109987 59.885826 C 50.109987 59.885826 57.419743 62.073488 76.467227 63.018381 C 76.069597 66.102444 75.372704 70.329522 75.372704 70.329522 C 74.229688 70.329522 53.292419 67.444967 53.292419 67.444967 C 53.142788 67.544721 52.149403 69.284876 52.149403 69.284876 C 52.149403 69.284876 52.197895 81.220726 52.994542 82.762758 Z M 147.827405 45.215051 C 147.429774 49.144253 147.131897 62.770381 144.944235 62.918627 C 144.944235 62.918627 142.904819 63.715274 142.904819 63.61552 C 142.904819 63.465888 132.461123 64.360904 131.416476 63.465888 L 130.073953 61.675857 L 129.178937 56.553763 C 129.178937 56.553763 128.13429 44.568035 129.079183 43.125758 C 129.079183 43.125758 131.118599 41.136219 141.660664 41.136219 C 146.087251 41.136219 148.176544 41.28585 147.827405 45.215051 Z M 165.929996 12.491562 C 138.528109 6.672575 120.077764 12.491562 120.077764 12.491562 L 116.745701 15.873502 C 112.319115 44.915789 120.475395 78.036909 120.475395 78.036909 L 121.420288 81.468726 C 132.709122 92.609315 156.680578 85.597436 156.680578 85.745681 C 156.680578 85.895313 160.957534 81.618357 160.957534 81.618357 C 172.643999 55.459239 167.869659 14.978486 167.869659 14.978486 Z M 249.124885 53.321454 C 249.124885 53.321454 244.252176 41.335727 243.803283 40.340957 C 243.355775 39.346187 233.311095 19.055934 233.311095 19.055934 L 233.261218 19.006057 C 225.304446 17.166148 215.208504 17.613656 215.208504 17.613656 L 212.72158 18.360426 C 212.72158 18.360426 211.428933 61.825488 213.069333 83.210266 L 214.760996 85.497682 L 227.342477 86.044944 L 228.934386 85.547559 C 228.934386 85.547559 229.232262 75.401739 229.182385 74.357093 C 229.182385 73.312446 228.636509 58.59318 228.636509 58.59318 C 228.636509 58.59318 237.189034 73.809831 237.736296 74.706232 C 238.283558 75.601247 244.59993 85.995067 244.59993 85.995067 L 263.745783 86.542328 C 263.745783 86.542328 265.735322 11.198916 265.088306 11.049285 C 257.131534 9.209376 252.00944 9.656884 252.00944 9.656884 C 252.00944 9.656884 249.771901 9.756638 249.522516 10.402269 Z M 307.158197 45.215051 C 306.760566 49.144253 306.461304 62.770381 304.273642 62.918627 C 304.273642 62.918627 302.234226 63.715274 302.234226 63.61552 C 302.234226 63.465888 291.790529 64.360904 290.745883 63.465888 L 289.403359 61.675857 L 288.508344 56.553763 C 288.508344 56.553763 287.463697 44.568035 288.40859 43.125758 C 288.40859 43.125758 290.448006 41.136219 300.991456 41.136219 C 305.416657 41.136219 307.505951 41.28585 307.158197 45.215051 Z M 325.259403 12.491562 C 297.857516 6.672575 279.407171 12.491562 279.407171 12.491562 L 276.075108 15.873502 C 271.649907 44.915789 279.804802 78.036909 279.804802 78.036909 L 280.75108 81.468726 C 292.039915 92.609315 316.009985 85.597436 316.009985 85.745681 C 316.009985 85.895313 320.28694 81.618357 320.28694 81.618357 C 331.973406 55.459239 327.199065 14.978486 327.199065 14.978486 Z M 337.240975 53.669208 C 338.435252 53.569454 348.182056 53.321454 353.851412 53.072069 C 353.901289 64.460658 354.100797 73.711462 354.69655 81.220726 L 356.388213 83.508142 L 368.572063 84.552789 C 368.572063 84.552789 369.019571 69.484384 369.417202 52.276808 C 379.215268 51.779423 383.590592 51.282038 388.514563 50.984161 C 389.509333 44.667789 388.017178 16.121502 387.669424 11.496792 C 379.015759 10.502023 345.447132 7.866853 336.793467 8.959991 C 336.793467 8.959991 333.561158 36.810771 337.240975 53.669208 Z M 337.240975 53.669208 " stroke="#000000" stroke-width="2.037154" stroke-opacity="1" stroke-miterlimit="4"/><g fill="#d64482" fill-opacity="1"><g transform="translate(145.400696, 591.875472)"><g><path d="M 73.753906 -3.226562 L 69.546875 -75.015625 L 71.929688 -80.761719 C 117.640625 -81.183594 149.46875 -82.867188 149.46875 -82.867188 L 149.46875 -100.253906 C 149.46875 -100.253906 147.085938 -114.414062 147.367188 -114.132812 C 147.644531 -113.855469 130.257812 -113.574219 130.257812 -113.574219 L 93.945312 -113.433594 C 87.773438 -130.820312 89.457031 -152.132812 89.457031 -152.132812 C 146.105469 -154.9375 155.359375 -156.199219 155.359375 -156.199219 C 162.507812 -178.210938 156.058594 -209.902344 156.058594 -209.902344 L 147.226562 -210.460938 L 26.921875 -207.378906 C 26.921875 -207.378906 21.734375 -196.160156 21.171875 -187.1875 C 20.613281 -178.210938 27.902344 0 27.902344 0 L 69.6875 0.140625 Z M 73.753906 -3.226562 "/></g></g></g><g fill="#d64482" fill-opacity="1"><g transform="translate(320.938515, 591.875472)"><g><path d="M 160.964844 -156.199219 C 168.117188 -178.210938 161.667969 -209.902344 161.667969 -209.902344 L 152.832031 -210.460938 L 32.53125 -207.378906 C 32.53125 -207.378906 27.34375 -196.160156 26.78125 -187.1875 C 26.21875 -178.210938 25.378906 -35.753906 31.6875 -18.929688 C 34.773438 -10.65625 37.578125 -2.101562 40.664062 -1.402344 C 43.746094 -0.699219 79.363281 2.101562 125.070312 1.683594 C 170.78125 1.261719 160.6875 2.382812 160.6875 2.382812 L 159.285156 -37.4375 C 159.285156 -37.4375 152.695312 -41.785156 152.972656 -41.503906 C 153.253906 -41.222656 156.898438 -40.941406 156.898438 -40.941406 L 88.476562 -41.503906 L 84.96875 -45.289062 L 85.953125 -80.761719 C 131.660156 -81.183594 155.078125 -82.867188 155.078125 -82.867188 L 155.078125 -100.253906 C 155.078125 -100.253906 152.695312 -114.414062 152.972656 -114.132812 C 153.253906 -113.855469 135.867188 -113.574219 135.867188 -113.574219 L 99.550781 -113.433594 C 93.382812 -130.820312 95.066406 -152.132812 95.066406 -152.132812 C 151.710938 -154.9375 160.964844 -156.199219 160.964844 -156.199219 Z M 160.964844 -156.199219 "/></g></g></g><g fill="#d64482" fill-opacity="1"><g transform="translate(507.833013, 591.875472)"><g><path d="M 12.058594 -88.335938 C 15.421875 -88.617188 42.90625 -89.316406 58.890625 -90.019531 C 59.03125 -57.910156 59.589844 -31.828125 61.273438 -10.65625 L 66.042969 -4.207031 L 100.394531 -1.261719 C 100.394531 -1.261719 101.65625 -43.746094 102.777344 -92.261719 C 130.398438 -93.664062 142.738281 -95.066406 156.621094 -95.90625 C 159.425781 -113.714844 155.21875 -194.195312 154.234375 -207.238281 C 129.839844 -210.042969 35.195312 -217.472656 10.796875 -214.386719 C 10.796875 -214.386719 1.683594 -135.867188 12.058594 -88.335938 Z M 12.058594 -88.335938 "/></g></g></g><g fill="#d64482" fill-opacity="1"><g transform="translate(672.154356, 591.875472)"><g><path d="M 17.808594 -211.582031 C 17.808594 -211.582031 7.152344 -135.027344 16.824219 -59.3125 C 19.910156 -34.492188 25.378906 -9.675781 33.933594 12.199219 C 33.933594 12.199219 113.714844 5.609375 148.628906 1.402344 L 147.925781 -50.898438 C 121.003906 -51.039062 117.078125 -49.355469 91.980469 -49.355469 C 89.316406 -49.355469 62.816406 -50.054688 60.710938 -53.28125 C 59.589844 -55.664062 55.105469 -73.191406 55.105469 -73.191406 C 55.105469 -73.191406 53.84375 -82.027344 59.3125 -89.738281 C 64.078125 -96.609375 151.992188 -94.222656 159.984375 -95.90625 C 158.441406 -92.542969 163.070312 -119.601562 163.070312 -119.601562 C 163.070312 -132.222656 162.226562 -191.394531 161.246094 -204.433594 C 136.847656 -207.238281 42.203125 -214.667969 17.808594 -211.582031 Z M 17.808594 -211.582031 "/></g></g></g><g fill="#d64482" fill-opacity="1"><g transform="translate(849.094234, 591.875472)"><g><path d="M 25.941406 -199.664062 C 25.941406 -199.664062 28.464844 -7.710938 28.882812 -7.429688 C 29.023438 -7.292969 35.335938 -4.765625 35.753906 -4.628906 C 36.175781 -4.488281 75.574219 -2.804688 75.574219 -2.804688 C 75.15625 -2.804688 78.660156 -80.0625 78.660156 -80.0625 C 78.660156 -80.0625 105.300781 -80.761719 105.300781 -80.34375 C 105.300781 -79.921875 108.105469 -6.449219 108.105469 -4.207031 C 108.105469 -1.964844 166.015625 0 166.015625 0 L 163.070312 -206.816406 C 144.140625 -217.332031 98.710938 -211.023438 98.710938 -211.023438 L 96.746094 -150.167969 L 96.046875 -128.015625 L 67.582031 -127.035156 C 67.582031 -127.035156 65.199219 -129.699219 65.199219 -130.398438 L 66.042969 -202.609375 C 51.039062 -205.414062 25.941406 -199.664062 25.941406 -199.664062 Z M 25.941406 -199.664062 "/></g></g></g><g fill="#d64482" fill-opacity="1"><g transform="translate(1032.764039, 591.875472)"><g><path d="M 58.1875 -15.144531 C 58.1875 -16.40625 58.1875 -17.527344 57.488281 -18.648438 C 53.984375 -26.640625 47.671875 -28.183594 38.980469 -28.183594 C 28.605469 -28.183594 11.496094 -23.695312 11.496094 -11.777344 C 11.496094 -0.980469 23.554688 5.609375 33.089844 5.609375 C 43.464844 5.609375 58.1875 -4.628906 58.1875 -15.144531 Z M 58.1875 -15.144531 "/></g></g></g><path stroke-linecap="butt" transform="matrix(2.819434, 0, 0, 2.819434, 0.886166, 61.237896)" fill="none" stroke-linejoin="miter" d="M 74.143789 184.8555 L 72.651634 159.393275 L 73.496773 157.355244 C 89.709579 157.205613 100.998414 156.608474 100.998414 156.608474 L 100.998414 150.441733 C 100.998414 150.441733 100.153276 145.419393 100.251644 145.519147 C 100.351398 145.617516 94.184657 145.71727 94.184657 145.71727 L 81.303914 145.767147 C 79.116252 139.600406 79.713391 132.041265 79.713391 132.041265 C 99.804136 131.046495 103.086322 130.598988 103.086322 130.598988 C 105.623123 122.791847 103.335707 111.551503 103.335707 111.551503 L 100.201767 111.353381 L 57.533352 112.446519 C 57.533352 112.446519 55.692058 116.425598 55.493936 119.608029 C 55.294427 122.791847 57.881106 185.999901 57.881106 185.999901 L 72.701511 186.049778 Z M 167.336252 130.598988 C 169.871667 122.791847 167.584251 111.551503 167.584251 111.551503 L 164.451697 111.353381 L 121.781896 112.446519 C 121.781896 112.446519 119.941988 116.425598 119.74248 119.608029 C 119.544357 122.791847 119.245095 173.318665 121.484019 179.285898 C 122.577158 182.22033 123.571927 185.254516 124.666451 185.502516 C 125.760975 185.751901 138.392333 186.745285 154.605139 186.597039 C 170.81656 186.447408 167.236498 186.845039 167.236498 186.845039 L 166.739113 172.721526 C 166.739113 172.721526 164.40182 171.179495 164.501574 171.279249 C 164.601328 171.379003 165.893974 171.478757 165.893974 171.478757 L 141.624642 171.279249 L 140.381872 169.936725 L 140.729626 157.355244 C 156.942432 157.205613 165.246958 156.608474 165.246958 156.608474 L 165.246958 150.441733 C 165.246958 150.441733 164.40182 145.419393 164.501574 145.519147 C 164.601328 145.617516 158.434587 145.71727 158.434587 145.71727 L 145.553844 145.767147 C 143.364796 139.600406 143.961935 132.041265 143.961935 132.041265 C 164.054066 131.046495 167.336252 130.598988 167.336252 130.598988 Z M 180.808592 154.668812 C 182.00287 154.569058 191.749673 154.321058 197.419029 154.073058 C 197.468906 165.460262 197.668414 174.711066 198.265553 182.22033 L 199.95583 184.507746 L 212.139681 185.552393 C 212.139681 185.552393 212.587189 170.483987 212.984819 153.276411 C 222.782885 152.779026 227.158209 152.281642 232.082181 151.983765 C 233.07695 145.667393 231.584796 117.122491 231.237042 112.496396 C 222.583377 111.501626 189.014749 108.866457 180.361084 109.96098 C 180.361084 109.96098 177.128776 137.810375 180.808592 154.668812 Z M 241.12932 110.95575 C 241.12932 110.95575 237.349749 138.108252 240.781566 164.964262 C 241.87609 173.766173 243.815752 182.568084 246.848553 190.326733 C 246.848553 190.326733 275.146841 187.98944 287.528814 186.497285 L 287.280814 167.947186 C 277.732134 167.897309 276.339733 168.494448 267.438069 168.494448 C 266.493176 168.494448 257.094127 168.246448 256.347357 167.102047 C 255.949726 166.256909 254.357817 160.040291 254.357817 160.040291 C 254.357817 160.040291 253.910309 156.907736 255.849972 154.171427 C 257.541634 151.73438 288.723092 152.580904 291.55777 151.983765 C 291.010508 153.176657 292.652294 143.579485 292.652294 143.579485 C 292.652294 139.103022 292.353031 118.11726 292.005278 113.491166 C 283.351613 112.496396 249.782985 109.861226 241.12932 110.95575 Z M 306.77165 115.182828 C 306.77165 115.182828 307.666666 183.264977 307.816297 183.364731 C 307.866174 183.414608 310.103713 184.309623 310.253344 184.3595 C 310.40159 184.407992 324.376857 185.005131 324.376857 185.005131 C 324.227226 185.005131 325.469995 157.603244 325.469995 157.603244 C 325.469995 157.603244 334.918922 157.355244 334.918922 157.50349 C 334.918922 157.653121 335.913691 183.712484 335.913691 184.507746 C 335.913691 185.304393 356.45333 185.999901 356.45333 185.999901 L 355.408683 112.646027 C 348.694681 108.916334 332.581628 111.153873 332.581628 111.153873 L 331.886121 132.738158 L 331.636736 140.595176 L 321.542179 140.94293 C 321.542179 140.94293 320.695655 139.998037 320.695655 139.750037 L 320.994917 114.138182 C 315.673315 113.143412 306.77165 115.182828 306.77165 115.182828 Z M 383.353676 180.628421 C 383.353676 180.180913 383.353676 179.783283 383.105676 179.385652 C 381.861521 176.550974 379.623982 176.003712 376.541304 176.003712 C 372.860102 176.003712 366.793116 177.595621 366.793116 181.822699 C 366.793116 185.652147 371.070071 187.98944 374.452011 187.98944 C 378.131828 187.98944 383.353676 184.3595 383.353676 180.628421 Z M 383.353676 180.628421 " stroke="#000000" stroke-width="2.037154" stroke-opacity="1" stroke-miterlimit="4"/><g clip-path="url(#80fa0c857b)"><path fill="#000000" d="M 1193.089844 328.222656 C 1186.058594 315.097656 1175.078125 305.464844 1163.621094 297.394531 C 1127.605469 271.261719 1093.890625 276.046875 1053.347656 282.1875 C 1024.988281 286.742188 976.476562 290.082031 955.789062 313.414062 C 955.535156 314.582031 955.941406 315.835938 956.226562 316.976562 C 956.390625 317.652344 956.644531 318.296875 956.988281 318.902344 C 957.097656 319.066406 957.257812 319.339844 957.445312 319.136719 C 972.203125 304.050781 992.78125 299.730469 1011.71875 295.425781 C 1035.574219 290.777344 1059.722656 288.269531 1083.722656 284.746094 C 1096.847656 283.183594 1110.164062 282.808594 1123.160156 285.316406 C 1147.03125 289.78125 1171.242188 304.1875 1187.519531 323.957031 C 1206.628906 348.625 1211.929688 386.609375 1186.644531 409.316406 C 1154.867188 439.429688 1113.15625 450.519531 1072.441406 446.324219 C 1042.351562 443.613281 1012.441406 429.597656 993.433594 403.097656 C 986.09375 393.015625 980.132812 381.828125 973.679688 371.042969 C 966.535156 358.785156 956.113281 344.375 941.222656 347.746094 C 927.90625 352.359375 915.566406 360.175781 903.546875 367.992188 C 917.015625 353.863281 931.535156 340.40625 948.992188 332.976562 C 954.167969 330.859375 959.625 328.457031 965.191406 328.625 C 965.746094 328.65625 966.269531 328.976562 966.707031 329.246094 C 966.855469 329.199219 966.859375 328.886719 966.867188 328.773438 C 966.832031 327.480469 966.3125 324.03125 965.210938 323.578125 C 956.933594 322.722656 948.75 327.214844 941.242188 330.769531 C 927.332031 337.789062 915.679688 348.925781 904.425781 360.222656 C 898.765625 365.664062 893.453125 371.425781 888.492188 377.511719 C 885.753906 380.3125 885.996094 381.09375 887.394531 384.761719 C 887.46875 384.886719 887.613281 385.308594 887.851562 385.273438 C 889.011719 384.820312 889.96875 383.878906 891.027344 383.195312 C 893.867188 381.144531 896.726562 379.109375 899.621094 377.140625 C 912.476562 368.511719 925.773438 360.550781 939.855469 354.730469 C 963.351562 345.882812 974.28125 378.15625 985.390625 394.777344 C 1003.171875 426.1875 1031.011719 444.742188 1063.960938 450.15625 C 1069.347656 451.082031 1074.773438 451.71875 1080.226562 452.078125 C 1083.613281 452.296875 1087.003906 452.40625 1090.402344 452.40625 C 1123.238281 452.40625 1156.351562 441.996094 1182.726562 419.464844 C 1213.023438 397.058594 1209.636719 359.015625 1193.089844 328.222656 Z M 1193.089844 328.222656 " fill-opacity="1" fill-rule="nonzero"/></g><path fill="#000000" d="M 1136.3125 335.539062 C 1135.726562 334.4375 1133.691406 332.324219 1134.445312 335.152344 C 1135.132812 340.328125 1134.753906 345.683594 1134.871094 350.929688 C 1134.835938 357.175781 1134.792969 363.421875 1134.707031 369.667969 C 1134.890625 373.214844 1134.050781 376.984375 1134.835938 380.410156 C 1135.796875 382.976562 1136.980469 385.664062 1138.914062 387.484375 C 1138.976562 387.558594 1139.058594 387.601562 1139.15625 387.613281 L 1139.171875 387.613281 C 1139.292969 387.597656 1139.386719 387.542969 1139.453125 387.4375 C 1139.519531 387.335938 1139.535156 387.226562 1139.496094 387.109375 C 1139.664062 382.195312 1139.730469 377.285156 1139.773438 372.363281 C 1139.828125 362.078125 1139.953125 351.699219 1139.121094 341.492188 C 1138.480469 339.371094 1137.542969 337.386719 1136.3125 335.539062 Z M 1136.3125 335.539062 " fill-opacity="1" fill-rule="nonzero"/><path fill="#000000" d="M 1136.339844 399.332031 C 1136.109375 399.070312 1135.832031 398.882812 1135.507812 398.761719 C 1134.613281 398.496094 1135.179688 400.664062 1135.246094 400.933594 C 1135.65625 402.417969 1136.203125 403.855469 1136.882812 405.238281 C 1137.761719 407.179688 1138.820312 409.011719 1140.0625 410.738281 C 1140.390625 411.207031 1140.753906 411.640625 1141.152344 412.050781 C 1141.382812 412.308594 1141.660156 412.5 1141.984375 412.621094 C 1142.019531 412.632812 1142.058594 412.640625 1142.097656 412.640625 L 1142.121094 412.640625 C 1142.816406 412.640625 1142.304688 410.699219 1142.242188 410.449219 C 1141.832031 408.960938 1141.289062 407.527344 1140.605469 406.144531 C 1139.730469 404.203125 1138.671875 402.367188 1137.429688 400.636719 C 1137.101562 400.171875 1136.738281 399.738281 1136.339844 399.332031 Z M 1136.339844 399.332031 " fill-opacity="1" fill-rule="nonzero"/><path fill="#000000" d="M 1074.703125 335.464844 C 1072.320312 333.765625 1064.25 323.183594 1062.699219 324.332031 C 1062.113281 327.753906 1069.328125 335.09375 1071.683594 337.222656 C 1074.519531 340.0625 1077.269531 343.066406 1080.105469 345.941406 C 1079.84375 346.746094 1079.585938 347.550781 1079.351562 348.359375 C 1075.785156 358.804688 1072.054688 369.179688 1068.4375 379.601562 C 1068.714844 381.308594 1070.035156 382.6875 1071.011719 383.96875 C 1071.179688 384.046875 1072.660156 386.082031 1073.480469 386.132812 L 1073.515625 386.132812 C 1073.652344 386.136719 1073.757812 386.078125 1073.835938 385.964844 C 1077.867188 374.457031 1081.851562 362.929688 1086.085938 351.496094 C 1086.320312 351.625 1086.566406 351.707031 1086.832031 351.746094 L 1086.878906 351.746094 C 1087.535156 351.746094 1087.304688 350.796875 1086.769531 349.648438 C 1087.09375 348.777344 1087.40625 347.902344 1087.734375 347.03125 C 1089.167969 343.246094 1090.46875 339.390625 1091.261719 335.378906 C 1091.648438 334.007812 1091.535156 332.203125 1092.433594 331.125 C 1092.804688 329.226562 1088.554688 324.433594 1087.050781 323.484375 C 1086.5 323.03125 1086.007812 323.21875 1086.242188 324.023438 C 1085.765625 330.316406 1083.484375 336.261719 1081.378906 342.203125 C 1079.222656 339.886719 1076.882812 337.757812 1074.703125 335.464844 Z M 1074.703125 335.464844 " fill-opacity="1" fill-rule="nonzero"/><path fill="#000000" d="M 1090.691406 358.785156 C 1090.128906 372.320312 1099.257812 379.332031 1109.800781 382.84375 L 1109.910156 382.84375 C 1110.941406 382.84375 1109.304688 380.480469 1109.019531 380.042969 C 1107.925781 378.554688 1106.773438 376.851562 1105.1875 376 C 1102.582031 375.160156 1100.113281 373.90625 1097.71875 372.507812 C 1097.105469 368.421875 1096.828125 364.316406 1096.882812 360.183594 C 1097.167969 360.433594 1097.429688 360.644531 1097.652344 360.804688 C 1097.828125 360.933594 1098.023438 361.015625 1098.238281 361.054688 L 1098.261719 361.054688 C 1098.402344 361.054688 1098.511719 360.988281 1098.535156 360.789062 C 1100.015625 360.492188 1101.519531 360.496094 1103.027344 360.5 C 1104.355469 360.535156 1105.679688 360.472656 1107 360.304688 C 1108.398438 359.144531 1102.585938 352.535156 1101.324219 351.90625 C 1100.078125 351.53125 1098.765625 351.796875 1097.457031 352.160156 C 1098.289062 345.957031 1100.015625 339.933594 1102.867188 334.59375 C 1104.648438 335.558594 1106.761719 335.875 1108.664062 336.425781 C 1109.816406 336.089844 1107.191406 332.4375 1106.753906 331.828125 C 1104.933594 329.425781 1102.886719 326.585938 1099.734375 327.023438 C 1099.484375 327.003906 1099.238281 327.007812 1098.988281 327.042969 C 1098.621094 327.109375 1098.257812 327.085938 1097.898438 326.96875 C 1097.734375 326.875 1097.3125 326.582031 1097.105469 326.785156 C 1097.105469 326.808594 1097.105469 326.839844 1097.105469 326.863281 C 1097.011719 327 1096.992188 327.144531 1097.039062 327.300781 C 1095.5625 331.269531 1093.78125 335.121094 1092.78125 339.296875 C 1091.09375 345.601562 1090.539062 352.246094 1090.691406 358.785156 Z M 1099.84375 328.8125 L 1099.777344 328.734375 C 1099.792969 328.75 1099.8125 328.765625 1099.832031 328.78125 Z M 1099.84375 328.8125 " fill-opacity="1" fill-rule="nonzero"/><path fill="#000000" d="M 1032.3125 328.734375 C 1034.132812 345.339844 1033.625 362.292969 1034.511719 379.003906 C 1035.167969 381.5 1037.132812 383.640625 1039 385.136719 C 1039.152344 385.234375 1039.320312 385.300781 1039.5 385.339844 L 1039.523438 385.339844 C 1039.625 385.339844 1039.707031 385.285156 1039.707031 385.128906 C 1039.523438 378.175781 1039.28125 371.226562 1039.027344 364.277344 C 1038.847656 353.390625 1037.824219 342.472656 1037.660156 331.636719 L 1037.832031 331.523438 C 1037.851562 331.460938 1037.859375 331.398438 1037.855469 331.335938 C 1041.707031 328.648438 1046.875 330.460938 1050.21875 333.421875 C 1052.585938 337.375 1052.125 342.84375 1050.347656 347.066406 C 1048.222656 352.261719 1043.667969 355.277344 1039.632812 358.417969 C 1039.621094 360.890625 1042.394531 363.515625 1043.875 365.265625 C 1045.003906 366.710938 1046.574219 367.066406 1048.1875 366.375 C 1051.023438 366.09375 1053.863281 365.789062 1056.699219 366.285156 C 1055.421875 380.023438 1044.152344 384.652344 1034.84375 390.664062 C 1034.589844 393.105469 1039.175781 398.15625 1041.019531 399.457031 C 1041.140625 399.542969 1041.273438 399.589844 1041.421875 399.59375 L 1041.507812 399.59375 C 1044.011719 399.59375 1052.328125 392.785156 1054.089844 391.390625 C 1059.179688 387.460938 1063.019531 381.535156 1063.664062 374.605469 C 1063.664062 368.332031 1059.222656 363.191406 1055.050781 359.601562 C 1058.695312 354.285156 1059.5 346.71875 1057 340.710938 C 1053.363281 331.496094 1040.046875 316.433594 1030.660156 324.609375 C 1030.808594 324.644531 1030.515625 324.679688 1030.226562 324.71875 C 1030.007812 325.226562 1031.011719 326.972656 1032.3125 328.734375 Z M 1032.3125 328.734375 " fill-opacity="1" fill-rule="nonzero"/><path fill="#000000" d="M 1145.199219 306.792969 C 1146.011719 308.320312 1148.0625 310.851562 1149.796875 311.039062 C 1153.359375 313.753906 1155.632812 318.183594 1158.378906 321.75 C 1159.628906 323.683594 1160.738281 325.773438 1162.695312 327.09375 C 1166.84375 329.859375 1154.644531 314.410156 1153.964844 313.511719 C 1151.761719 310.738281 1149.214844 308.109375 1145.925781 306.664062 C 1145.617188 306.496094 1145.058594 306.246094 1145.199219 306.792969 Z M 1145.199219 306.792969 " fill-opacity="1" fill-rule="nonzero"/><path fill="#000000" d="M 1155.128906 308.246094 C 1158.496094 309.976562 1159.792969 313.582031 1161.808594 316.71875 C 1164.277344 321.253906 1166.476562 325.921875 1168.402344 330.714844 C 1169.054688 332.789062 1170.820312 334.796875 1172.785156 335.789062 C 1170.414062 326.699219 1160.878906 307.304688 1150.875 303.8125 C 1150.167969 304.589844 1154.144531 308.449219 1155.128906 308.246094 Z M 1155.128906 308.246094 " fill-opacity="1" fill-rule="nonzero"/><path fill="#000000" d="M 1024.933594 410.042969 C 1033.957031 419.578125 1048.019531 421.085938 1060.292969 423.4375 C 1061.109375 423.4375 1059.9375 422.09375 1059.640625 421.757812 C 1057.84375 419.039062 1054.652344 419.117188 1051.78125 418.554688 C 1042.363281 416.664062 1032.3125 415 1024.757812 408.644531 C 1023.585938 408.136719 1024.574219 409.691406 1024.933594 410.042969 Z M 1024.933594 410.042969 " fill-opacity="1" fill-rule="nonzero"/><path fill="#000000" d="M 1018.566406 416.371094 C 1024.988281 424.480469 1041.359375 428.390625 1051.179688 431.410156 C 1052.386719 431.023438 1048.464844 427.421875 1047.574219 427.21875 C 1037.96875 424.402344 1027.742188 421.746094 1019.441406 416.019531 C 1018.796875 415.464844 1017.851562 415.234375 1018.566406 416.371094 Z M 1018.566406 416.371094 " fill-opacity="1" fill-rule="nonzero"/><g clip-path="url(#34772434cd)"><path fill="#000000" d="M 179.847656 295.945312 C 179.875 294.242188 179.636719 292.578125 179.140625 290.949219 C 178.28125 291.035156 177.421875 291.113281 176.558594 291.1875 L 175.042969 291.320312 C 174.820312 291.933594 174.578125 292.539062 174.347656 293.152344 C 174.199219 292.824219 174.054688 292.503906 173.917969 292.191406 C 173.800781 291.921875 173.632812 291.683594 173.414062 291.484375 L 172.988281 291.597656 L 172.8125 291.730469 C 172.8125 291.769531 172.796875 291.8125 172.792969 291.855469 C 171.640625 292.632812 170.507812 293.453125 169.382812 294.277344 C 169.332031 294.238281 169.273438 294.210938 169.210938 294.195312 C 169.160156 294.210938 169.105469 294.21875 169.050781 294.222656 C 168.925781 294.316406 168.839844 294.441406 168.796875 294.589844 C 168.691406 294.714844 168.578125 294.824219 168.46875 294.945312 L 168.460938 294.945312 C 167.355469 295.75 166.253906 296.5625 165.1875 297.410156 C 164.992188 297.601562 164.898438 297.828125 164.910156 298.101562 C 163.238281 299.375 161.480469 300.5625 159.855469 301.859375 C 156.605469 304.117188 153.304688 306.453125 149.484375 307.617188 C 145.570312 308.824219 141.417969 308.953125 137.394531 308.320312 C 126.800781 306.519531 116.222656 304.691406 105.566406 303.316406 C 91.101562 300.859375 76.25 302.136719 62.359375 306.847656 C 34.214844 317.503906 10.507812 343.140625 7.757812 373.878906 C 6.753906 390.015625 10.894531 407.503906 19.726562 421.097656 C 24.269531 428.378906 30.683594 434.160156 37.460938 439.320312 C 40.816406 441.921875 44.316406 444.402344 48.1875 446.175781 C 58.632812 450.648438 69.839844 452.703125 81.125 452.703125 C 101.214844 452.703125 121.527344 446.1875 138.070312 435.207031 C 146.65625 429.074219 153.296875 420.433594 157.480469 410.761719 C 163.734375 394.949219 159.941406 377.375 160.003906 360.835938 C 159.355469 345.519531 165.226562 331.089844 171.371094 317.367188 C 174.496094 310.355469 177.558594 303.289062 179.847656 295.945312 Z M 157.394531 368.703125 C 157.578125 377.558594 158.484375 386.601562 156.578125 395.324219 C 150.097656 418.894531 131.988281 431.6875 109.796875 439.074219 C 91.261719 445.113281 70.507812 446.398438 51.882812 440.054688 C 49.164062 439.058594 46.535156 437.859375 44.003906 436.453125 C 35.96875 432.019531 28.703125 425.6875 22.789062 418.972656 C 0.886719 393.699219 12.449219 356.457031 34.417969 335.226562 C 46.734375 323.417969 62.367188 314.871094 79.246094 311.960938 C 83.421875 311.140625 87.625 310.824219 91.839844 310.824219 C 100.15625 310.824219 108.507812 312.058594 116.738281 313.089844 C 142.371094 316.019531 147.191406 324 167.660156 306.050781 L 167.691406 306.074219 C 168.375 305.53125 169.054688 304.976562 169.734375 304.417969 C 158.21875 330.117188 155.113281 340.117188 157.394531 368.703125 Z M 157.394531 368.703125 " fill-opacity="1" fill-rule="nonzero"/></g><path fill="#000000" d="M 63.5 364.78125 C 62.851562 364.257812 52.546875 356.078125 53.621094 359.09375 C 53.058594 358.761719 51.980469 357.757812 51.539062 358.6875 C 50.117188 361.074219 48.957031 363.644531 48.460938 366.394531 C 46.921875 373.480469 50.273438 380.582031 55.125 385.621094 C 58.394531 388.96875 62.128906 392.535156 66.863281 393.46875 C 67.304688 393.535156 67.75 393.570312 68.195312 393.570312 C 73.117188 393.570312 77.8125 389.503906 76.835938 384.246094 C 75.65625 376.15625 69.386719 369.941406 63.5 364.78125 Z M 64.246094 385.511719 C 62.136719 386.289062 59.703125 386.296875 57.714844 385.164062 C 54.183594 379.023438 55.773438 371.140625 58.597656 365.175781 L 52.269531 359.699219 L 52.355469 358.5 L 58.613281 365.15625 C 58.667969 365.042969 58.71875 364.929688 58.777344 364.816406 C 61.648438 366.785156 65.089844 368.273438 67.078125 371.257812 C 70.210938 375.886719 70.304688 383.324219 64.246094 385.511719 Z M 64.246094 385.511719 " fill-opacity="1" fill-rule="nonzero"/><path fill="#000000" d="M 58.601562 365.175781 L 58.746094 365.304688 C 58.699219 365.257812 58.652344 365.203125 58.601562 365.160156 C 58.597656 365.164062 58.597656 365.171875 58.601562 365.175781 Z M 58.601562 365.175781 " fill-opacity="1" fill-rule="nonzero"/><path fill="#000000" d="M 109 386.570312 C 102.300781 383.6875 95.875 380.1875 89.582031 376.515625 C 89.449219 375.335938 90.390625 374.492188 91.15625 373.734375 C 93.125 371.671875 95.152344 369.671875 97.144531 367.632812 C 99.226562 365.53125 101.265625 363.394531 103.128906 361.097656 C 104.96875 358.949219 106.503906 356.382812 108.867188 354.785156 C 111.109375 354.671875 104.046875 347.949219 103.101562 347.863281 C 102.847656 347.683594 102.070312 347.476562 102.210938 348.070312 C 101 350.417969 98.851562 352.121094 96.933594 353.875 C 93.628906 356.800781 90.660156 360.070312 87.675781 363.316406 C 87.476562 363.589844 87.257812 363.851562 87.027344 364.109375 C 86.777344 362.929688 86.515625 361.757812 86.25 360.59375 C 85.925781 358.824219 85.164062 357.234375 85.21875 355.402344 C 85.105469 355.445312 85.21875 355.265625 85.332031 355.078125 C 85.382812 354.027344 78.578125 346.882812 78.578125 349.257812 C 80.402344 355.046875 81.132812 361.214844 82.285156 367.183594 C 83.109375 372.632812 83.964844 378.070312 84.628906 383.527344 C 85.257812 386.679688 84.832031 390.207031 85.859375 393.199219 C 87.277344 395.269531 89.109375 397.175781 91.285156 398.441406 C 91.476562 398.539062 91.679688 398.601562 91.890625 398.625 C 92.03125 398.625 92.132812 398.566406 92.125 398.390625 C 91.941406 395.328125 91.617188 392.28125 91.242188 389.238281 C 90.832031 386.011719 90.371094 382.78125 89.867188 379.550781 C 91.316406 380.714844 92.859375 381.742188 94.496094 382.628906 C 101.894531 386.628906 109.226562 390.902344 117.164062 393.730469 C 117.199219 393.734375 117.234375 393.734375 117.265625 393.730469 C 118.375 393.730469 116.507812 391.578125 116.175781 391.191406 C 114.042969 388.550781 112.117188 387.636719 109 386.570312 Z M 109 386.570312 " fill-opacity="1" fill-rule="nonzero"/><path fill="#000000" d="M 143.675781 384.296875 C 143.726562 384.324219 143.78125 384.339844 143.839844 384.339844 C 143.949219 384.339844 144.03125 384.289062 144.085938 384.1875 C 144.136719 384.089844 144.128906 383.992188 144.0625 383.898438 C 143.144531 380.382812 142.152344 376.886719 141.15625 373.386719 C 138.820312 364.9375 136.125 356.566406 133.855469 348.109375 C 133.851562 348.121094 133.847656 348.132812 133.839844 348.148438 C 133.839844 348.148438 133.839844 348.136719 133.839844 348.132812 C 133.839844 348.125 133.839844 348.144531 133.839844 348.148438 C 133.824219 348.1875 133.808594 348.230469 133.796875 348.269531 C 133.90625 346.289062 130.195312 343.296875 128.636719 342.1875 C 127.3125 341.265625 127.109375 342.074219 127.886719 343.136719 C 129.300781 346.539062 130.167969 350.140625 131.238281 353.660156 C 132.898438 359.328125 134.550781 365 136.160156 370.679688 C 137.246094 373.773438 137.550781 377.230469 139.046875 380.121094 C 140.316406 381.75 141.789062 383.410156 143.675781 384.296875 Z M 143.675781 384.296875 " fill-opacity="1" fill-rule="nonzero"/><path fill="#000000" d="M 144.996094 392.441406 C 143.539062 390.867188 141.949219 389.347656 140.191406 388.117188 C 139.714844 387.765625 139.214844 387.457031 138.691406 387.1875 C 138.371094 387.003906 138.027344 386.902344 137.660156 386.882812 C 136.648438 386.882812 137.820312 388.777344 137.960938 389.007812 C 138.757812 390.320312 139.785156 391.511719 140.828125 392.628906 C 142.285156 394.203125 143.875 395.710938 145.632812 396.953125 C 146.109375 397.300781 146.609375 397.609375 147.132812 397.878906 C 147.453125 398.0625 147.796875 398.167969 148.164062 398.1875 C 149.175781 398.1875 148.003906 396.292969 147.871094 396.058594 C 147.070312 394.746094 146.042969 393.5625 144.996094 392.441406 Z M 144.996094 392.441406 " fill-opacity="1" fill-rule="nonzero"/></svg>